<svg xmlns="http://www.w3.org/2000/svg" width="24" height="24" viewBox="0 0 24 24"><path id="icon" d="M10.201 8.588c-0.802 0-1.62 0.609-1.62 1.616v0.493c0 0.908 0.724 1.615 1.616 1.616h3.612c0.906 0 1.61-0.715 1.61-1.616l1.028-3.188 -2.364 1.079H10.201L10.201 8.588zM17.137 3H6.862C4.738 3 3 4.738 3 6.863v10.274C3 19.262 4.738 21 6.862 21h10.275C19.261 21 21 19.262 21 17.137V6.863C21 4.738 19.261 3 17.137 3zM13.025 15.516l1.506 0.002c1.061 0.004 1.848-0.354 2.432-0.691l0.968 3.1L13.025 15.516zM17.931 11.434c0 2.113-1.719 3.392-3.399 3.392H8.581l-2.512 2.932c0-3.426 0-4.861 0-8.289 0-1.893 1.477-3.393 3.377-3.393h5.093c1.873 0 3.392 1.483 3.392 3.393V11.434L17.931 11.434z"/></svg>