<?xml version="1.0" encoding="utf-8"?>
<!-- Generator: Adobe Illustrator 16.0.0, SVG Export Plug-In . SVG Version: 6.00 Build 0)  -->
<!DOCTYPE svg PUBLIC "-//W3C//DTD SVG 1.1//EN" "http://www.w3.org/Graphics/SVG/1.1/DTD/svg11.dtd">
<svg version="1.1" id="Layer_1" xmlns="http://www.w3.org/2000/svg" xmlns:xlink="http://www.w3.org/1999/xlink" x="0px" y="0px"
	 width="128px" height="128px" viewBox="0 0 128 128" enable-background="new 0 0 128 128" xml:space="preserve">
<path fill="#FFFFFF" d="M85.908,12.577c12.154,5.157,21.082,13.544,27.229,24.711c-5.966,8.604-11.609,17.524-17.732,25.969
	C92.323,46.279,89.018,29.527,85.908,12.577z"/>
<path fill="#FFFFFF" d="M8,65.659c0-1.104,0-2.211,0-3.317c0.323-5.283,1.035-10.177,2.403-14.415
	c10.475-1.956,20.807-4.057,31.231-6.063c-9.737,14.63-19.375,29.361-29.173,43.93C9.978,80.079,8.401,73.457,8,65.659z"/>
<path fill="#FFFFFF" d="M120,62.342c0,1.106,0,2.213,0,3.317c-0.322,5.282-1.034,10.177-2.4,14.415
	c-10.617,1.928-21.047,4.047-31.576,6.063c9.842-14.525,19.771-29.575,29.631-43.701C118.053,48.121,119.609,54.646,120,62.342z"/>
<path fill="#FFFFFF" d="M32.94,63.829c3.248,17.19,6.396,34.481,9.496,51.823c-12.153-5.197-21.168-13.533-27.457-24.598
	C20.838,81.854,26.94,72.893,32.94,63.829z"/>
<path fill="#FFFFFF" d="M115.539,85.337c0.074,0,0.15,0,0.229,0c-5.299,12.474-13.881,21.66-25.283,28.028
	c-7.813-5.104-15.723-10.459-23.451-15.787c-1.055-0.729-2.004-1.426-3.089-2.288C81.248,92.078,98.365,88.678,115.539,85.337z"/>
<path fill="#FFFFFF" d="M62.342,8c1.104,0,2.213,0,3.317,0c5.459,0.376,10.651,1.017,14.87,2.632
	c2.007,10.122,3.82,20.433,5.837,30.545C72.08,31.4,57.59,21.828,43.465,11.889C48.953,9.79,55.106,8.354,62.342,8z"/>
<path fill="#FFFFFF" d="M62.342,120c-5.37-0.35-10.416-1.025-14.644-2.518c-1.776-10.352-3.702-20.551-5.606-30.773
	c14.365,9.698,28.883,19.243,43.016,29.173c-5.631,2.226-11.955,3.757-19.447,4.118C64.555,120,63.446,120,62.342,120z"/>
<path fill="#FFFFFF" d="M23.479,25.238c0.787-0.777,1.573-1.554,2.36-2.331c3.984-3.483,7.966-6.418,11.94-8.424
	c8.756,6.075,17.512,11.948,26.267,17.953c-17.25,3.357-34.503,6.857-51.753,10.128C14.614,36.781,18.217,31.005,23.479,25.238z"/>
</svg>
