<?xml version="1.0" encoding="utf-8"?>
<svg xmlns="http://www.w3.org/2000/svg" width="128px" height="128px">
<path fill="#FFFFFF" d="M85.127,14.413c11.721,4.973,20.328,13.062,26.256,23.828c-5.755,8.297-11.195,16.899-17.1,25.043
	C91.312,46.912,88.123,30.757,85.127,14.413z"/>
<path fill="#FFFFFF" d="M10,65.601c0-1.065,0-2.133,0-3.2c0.312-5.093,0.998-9.813,2.317-13.899
	c10.101-1.885,20.065-3.912,30.116-5.846c-9.389,14.107-18.684,28.312-28.132,42.362C11.908,79.505,10.387,73.121,10,65.601z"/>
<path fill="#FFFFFF" d="M118,62.4c0,1.067,0,2.135,0,3.2c-0.311,5.099-0.999,9.813-2.314,13.899
	c-10.238,1.857-20.297,3.902-30.447,5.848c9.491-14.01,19.064-28.52,28.572-42.142C116.123,48.688,117.625,54.98,118,62.4z"/>
<path fill="#FFFFFF" d="M34.049,63.835c3.133,16.575,6.167,33.249,9.156,49.974c-11.715-5.014-20.412-13.055-26.477-23.719
	C22.379,81.217,28.264,72.576,34.049,63.835z"/>
<path fill="#FFFFFF" d="M113.699,84.575c0.07,0,0.143,0,0.221,0c-5.111,12.028-13.385,20.887-24.381,27.028
	c-7.535-4.925-15.16-10.088-22.614-15.225c-1.017-0.701-1.931-1.375-2.978-2.206C80.631,91.074,97.139,87.795,113.699,84.575z"/>
<path fill="#FFFFFF" d="M62.4,10c1.065,0,2.135,0,3.2,0c5.264,0.362,10.269,0.98,14.339,2.538
	c1.939,9.761,3.684,19.703,5.627,29.453C71.791,32.564,57.818,23.334,44.197,13.75C49.49,11.726,55.424,10.342,62.4,10z"/>
<path fill="#FFFFFF" d="M62.4,118c-5.176-0.338-10.043-0.99-14.12-2.428c-1.712-9.981-3.569-19.816-5.405-29.676
	c13.852,9.354,27.85,18.556,41.479,28.134c-5.428,2.144-11.529,3.62-18.751,3.97C64.535,118,63.465,118,62.4,118z"/>
<path fill="#FFFFFF" d="M24.926,26.623c0.76-0.75,1.516-1.499,2.276-2.249c3.842-3.358,7.681-6.188,11.511-8.124
	c8.445,5.858,16.889,11.522,25.331,17.313c-16.633,3.238-33.271,6.613-49.905,9.767C16.377,37.754,19.852,32.183,24.926,26.623z"/>
</svg>
