<?xml version="1.0" encoding="utf-8"?>
<!-- Generator: Adobe Illustrator 16.0.0, SVG Export Plug-In . SVG Version: 6.00 Build 0)  -->
<!DOCTYPE svg PUBLIC "-//W3C//DTD SVG 1.1//EN" "http://www.w3.org/Graphics/SVG/1.1/DTD/svg11.dtd">
<svg version="1.1" id="Layer_1" xmlns="http://www.w3.org/2000/svg" xmlns:xlink="http://www.w3.org/1999/xlink" x="0px" y="0px"
	 width="128px" height="128px" viewBox="0 0 128 128" enable-background="new 0 0 128 128" xml:space="preserve">
<g>
	<path fill="#FFFFFF" d="M101.76,63.999c0-13.53-7.857-25.376-19.467-31.572h18.684V17.171H26.629v15.256h19.076
		C34.096,38.623,26.24,50.469,26.24,63.999c0,13.532,7.855,25.377,19.466,31.574H26.629v15.256h74.349V95.573H82.293
		C93.902,89.376,101.76,77.531,101.76,63.999z M64,85.612c-11.728,0-21.344-9.729-21.344-21.611
		c0-11.885,9.616-21.611,21.344-21.611c11.766,0,21.342,9.727,21.342,21.611S75.766,85.612,64,85.612z"/>
</g>
</svg>
