<?xml version="1.0" encoding="utf-8"?>
<svg xmlns="http://www.w3.org/2000/svg" width="128px" height="128px">
<path fill="#FFFFFF" d="M63.408,10.006c-12.018,0.078-23.898,4.359-33.233,11.896L40.373,33.74c8.607-6.79,20.206-9.563,30.962-7.42
	c5.912,1.136,11.537,3.73,16.284,7.42l10.198-11.839C88.163,14.109,75.837,9.818,63.408,10.006z"/>
<path fill="#FFFFFF" d="M26.854,24.808C16.106,34.904,9.806,49.579,10.004,64.384c0.006,15.362,7.016,30.455,18.658,40.439
	c10.76,9.409,25.394,14.205,39.682,12.991c15.482-1.153,30.178-9.42,39.262-21.982c8.842-11.938,12.306-27.683,9.372-42.28
	c-2.158-11.176-8.019-21.53-16.353-29.229L90.428,36.162c8.218,7.744,12.706,19.18,11.858,30.459
	c-0.369,5.588-1.993,11.103-4.736,16.012L76.766,62.555L66.278,39.953l-0.016,34.23l21.005,20.322
	c-9.359,7.271-22.203,9.685-33.584,6.461c-4.632-1.293-9.022-3.46-12.835-6.371l21.148-20.412c-0.038-11.131,0.128-23.145,0-34.267
	L51.495,62.554L30.531,82.796c-6.395-11.164-6.548-25.593-0.392-36.881c1.923-3.619,4.472-6.918,7.426-9.754l-10.2-11.839
	C27.194,24.482,27.024,24.646,26.854,24.808z"/>
</svg>
