<?xml version="1.0" encoding="utf-8"?>
<!-- Generator: Adobe Illustrator 16.0.0, SVG Export Plug-In . SVG Version: 6.00 Build 0)  -->
<!DOCTYPE svg PUBLIC "-//W3C//DTD SVG 1.1//EN" "http://www.w3.org/Graphics/SVG/1.1/DTD/svg11.dtd">
<svg version="1.1" id="Layer_1" xmlns="http://www.w3.org/2000/svg" xmlns:xlink="http://www.w3.org/1999/xlink" x="0px" y="0px"
	 width="128px" height="128px" viewBox="0 0 128 128" enable-background="new 0 0 128 128" xml:space="preserve">
<g>
	<path fill="#FFFFFF" d="M8.026,62.628C8.715,44.365,17.97,27.521,34.89,16.39c0.051,0.02,0.488-0.141,0.289,0.238
		c-1.341,1.243-25.438,29.707-3.258,52.176c0,0,11.653,11.202,20.689,0.571c0,0,8.918-11.543-0.112-29.042
		c0,0-2.286-5.714-10.521-9.258l6.631-7.317c0,0,5.604,2.405,9.945,8.927c0,0,0.23-6.867-5.029-14.184L63.808,6.835l10.18,11.557
		c0,0-4.682,6.631-5.025,14.402c0,0,3.196-5.26,10.061-9.036l6.513,7.317c0,0-6.263,2.064-10.458,9.183
		c-3.605,6.597-6.385,20.706,0.163,29.359c0,0,7.325,10.389,20.214-0.613c0,0,23.695-21.231-2.432-51.928
		c0,0-1.426-1.263,0.177-0.576c11.547,8.407,25.374,19.494,26.802,47.162c-0.563,33.552-23.032,57.503-55.841,57.503
		C32.035,121.165,7.063,94.356,8.026,62.628"/>
</g>
</svg>
