<?xml version="1.0" encoding="utf-8"?>
<svg xmlns="http://www.w3.org/2000/svg" width="128px" height="128px">
<path fill="#FFFFFF" d="M12.026,62.726c0.64-16.958,9.235-32.598,24.943-42.934c0.047,0.018,0.453-0.131,0.27,0.22
	c-1.246,1.155-23.621,27.585-3.024,48.449c0,0,10.819,10.403,19.208,0.531c0,0,8.281-10.719-0.104-26.967
	c0,0-2.122-5.308-9.767-8.598l6.155-6.793c0,0,5.205,2.233,9.237,8.289c0,0,0.21-6.377-4.669-13.17l9.549-10.833l9.454,10.732
	c0,0-4.351,6.158-4.666,13.373c0,0,2.962-4.883,9.341-8.39l6.045,6.793c0,0-5.818,1.916-9.707,8.526
	c-3.347,6.126-5.933,19.226,0.147,27.265c0,0,6.8,9.646,18.768-0.574c0,0,22.006-19.711-2.253-48.215c0,0-1.324-1.173,0.162-0.535
	c10.723,7.808,23.561,18.101,24.887,43.792c-0.524,31.152-21.383,53.392-51.851,53.392C34.319,117.077,11.131,92.186,12.026,62.726
	"/>
</svg>
