<?xml version="1.0" encoding="utf-8"?>
<!-- Generator: Adobe Illustrator 16.0.0, SVG Export Plug-In . SVG Version: 6.00 Build 0)  -->
<!DOCTYPE svg PUBLIC "-//W3C//DTD SVG 1.1//EN" "http://www.w3.org/Graphics/SVG/1.1/DTD/svg11.dtd">
<svg version="1.1"
	 id="svg2" xmlns:dc="http://purl.org/dc/elements/1.1/" xmlns:svg="http://www.w3.org/2000/svg" xmlns:rdf="http://www.w3.org/1999/02/22-rdf-syntax-ns#" xmlns:cc="http://creativecommons.org/ns#"
	 xmlns="http://www.w3.org/2000/svg" xmlns:xlink="http://www.w3.org/1999/xlink" x="0px" y="0px" width="128px" height="128px"
	 viewBox="0 0 128 128" enable-background="new 0 0 128 128" xml:space="preserve">
<path fill="#FFFFFF" d="M65.822,25.834c0.443-0.009,0.921-0.002,1.438,0.018c5.859,0.229,8.604,1.063,9.173,2.781
	c0.356,1.065,0.349,1.074-0.44,0.852c-5.161-1.461-6.638,1.603-3.825,7.921c0.892,2,2.045,4.6,2.564,5.774
	c0.61,1.372,1.02,2.104,1.142,2.057c0.135-0.052,18.359-14.251,24.032-18.723c0.707-0.556,8.229,8.984,7.648,9.702
	c-0.152,0.191-4.148,4.698-8.876,10.016C87.83,58.443,68.415,80.311,65.957,83.098c-1.03,1.164-1.908,2.123-1.95,2.125
	s-5.856-6.518-12.923-14.485c-7.067-7.971-16.812-18.955-21.656-24.414c-4.841-5.456-8.9-10.035-9.026-10.176
	c-0.555-0.631,7.087-10.125,7.735-9.611c0.105,0.082,1.514,1.181,3.13,2.443c1.62,1.262,3.708,2.896,4.648,3.631
	c0.936,0.739,3.649,2.866,6.033,4.724c2.384,1.861,5.607,4.386,7.162,5.606c3.258,2.559,3.164,2.506,3.392,1.942
	c0.731-1.818,6.982-15.445,7.342-16.007C61.238,26.699,62.715,25.893,65.822,25.834L65.822,25.834z"/>
<path fill="#FFFFFF" d="M109.358,38.528c0.14-0.056,2.48,4.793,3.154,6.541c1.79,4.65,2.991,9.982,3.36,14.914
	c0.094,1.249,0.146,3.064,0.12,4.031l-0.051,1.755l-5.566-4.991c-3.065-2.744-6.847-6.114-8.394-7.488
	c-1.549-1.372-2.815-2.526-2.817-2.57C99.159,50.621,109.217,38.582,109.358,38.528L109.358,38.528z"/>
<path fill="#FFFFFF" d="M18.613,38.594c0.107-0.065,10.14,11.817,10.208,12.091c0.014,0.063-1.24,1.233-2.787,2.607
	c-1.548,1.373-5.266,4.698-8.267,7.385c-3.001,2.687-5.523,4.924-5.611,4.978c-0.207,0.128-0.209-3.275,0-5.896
	c0.421-5.288,1.87-11.23,3.898-16.007C16.786,42.028,18.438,38.701,18.613,38.594L18.613,38.594z"/>
<path fill="#FFFFFF" d="M98.223,51.777l5.611,5.009c12.951,11.542,12.03,10.682,12.031,11.198c0.011,3.398-1.802,11.06-3.7,15.618
	c-0.327,0.791-0.694,1.614-0.809,1.829c-0.19,0.352-15.139-15.638-21.215-22.686l-0.57-0.663l3.958-4.712
	c2.173-2.592,4.12-4.911,4.322-5.152L98.223,51.777L98.223,51.777z"/>
<path fill="#FFFFFF" d="M29.771,51.85c0.08-0.022,6.862,7.986,8.333,9.839l0.338,0.426l-2.022,2.234
	c-1.114,1.231-2.632,2.896-3.374,3.705c-0.739,0.81-4.645,5.094-8.669,9.521c-4.026,4.428-7.365,8.108-7.429,8.175
	c-0.241,0.272-1.981-4.179-2.943-7.529c-0.982-3.423-1.988-9.134-1.829-10.378c0.038-0.283,1.311-1.506,4.772-4.597
	c2.598-2.318,6.52-5.825,8.72-7.79C27.868,53.492,29.717,51.867,29.771,51.85L29.771,51.85z"/>
<path fill="#FFFFFF" d="M88.605,63.248c0.146-0.006,1.046,0.975,11.315,12.24c5.232,5.747,9.774,10.73,10.088,11.071l0.574,0.624
	l-1.065,1.898c-1.829,3.286-4.217,6.658-6.611,9.337c-0.659,0.742-1.254,1.355-1.317,1.361c-0.059,0.005-1.352-1.539-2.871-3.434
	c-1.52-1.896-4.812-5.985-7.307-9.096c-2.498-3.104-6.029-7.512-7.857-9.784c-2.207-2.752-3.278-4.207-3.198-4.339
	c0.067-0.108,1.203-1.482,2.522-3.058c1.321-1.576,3.128-3.739,4.019-4.803c0.891-1.066,1.654-1.967,1.689-2.01
	C88.592,63.252,88.596,63.249,88.605,63.248L88.605,63.248z"/>
<path fill="#FFFFFF" d="M39.371,63.266c0.099,0.008,7.777,9.133,8.205,9.75c0.224,0.322,0.493-0.027-18.047,23.05
	c-1.602,1.992-2.982,3.645-3.064,3.674c-0.61,0.197-5.755-6.69-7.995-10.703l-1.036-1.856l0.507-0.546
	c0.278-0.298,3.426-3.747,6.993-7.662C36.273,66.514,39.267,63.256,39.371,63.266L39.371,63.266z"/>
<path fill="#FFFFFF" d="M74.064,76.756c0.181-0.067,20.319,29.2,20.21,29.378c-0.173,0.278-3.532,2.431-5.314,3.409
	c-6.185,3.388-13.334,5.551-20.467,6.188c-9.86,0.882-20.526-1.324-29.16-6.033c-2.222-1.211-5.663-3.412-5.665-3.62
	c-0.002-0.146,2.119-3.237,17.999-26.222c1.193-1.728,2.222-3.117,2.285-3.095s2.315,2.517,5.003,5.541
	c2.688,3.02,4.965,5.489,5.056,5.489c0.09,0,2.362-2.468,5.05-5.489C71.748,79.278,74,76.78,74.064,76.756L74.064,76.756z"/>
</svg>
