<?xml version="1.0" encoding="utf-8"?>
<!-- Generator: Adobe Illustrator 16.0.0, SVG Export Plug-In . SVG Version: 6.00 Build 0)  -->
<!DOCTYPE svg PUBLIC "-//W3C//DTD SVG 1.1//EN" "http://www.w3.org/Graphics/SVG/1.1/DTD/svg11.dtd">
<svg version="1.1"
	 id="svg2" xmlns:rdf="http://www.w3.org/1999/02/22-rdf-syntax-ns#" xmlns:dc="http://purl.org/dc/elements/1.1/" xmlns:svg="http://www.w3.org/2000/svg" xmlns:cc="http://creativecommons.org/ns#"
	 xmlns="http://www.w3.org/2000/svg" xmlns:xlink="http://www.w3.org/1999/xlink" x="0px" y="0px" width="128px" height="128px"
	 viewBox="0 0 128 128" enable-background="new 0 0 128 128" xml:space="preserve">
<path fill="#FFFFFF" d="M65.802,26.339c0.439-0.009,0.911-0.002,1.422,0.018c5.793,0.226,8.508,1.051,9.071,2.75
	c0.351,1.053,0.343,1.062-0.435,0.842c-5.104-1.444-6.565,1.586-3.783,7.832c0.882,1.979,2.021,4.55,2.535,5.709
	c0.603,1.357,1.008,2.082,1.129,2.035c0.134-0.052,18.154-14.09,23.762-18.512c0.697-0.549,8.135,8.883,7.564,9.594
	c-0.15,0.188-4.102,4.644-8.776,9.902C87.562,58.582,68.366,80.205,65.935,82.962c-1.018,1.15-1.886,2.098-1.928,2.1
	s-5.791-6.445-12.779-14.324C44.241,62.858,34.604,51.996,29.815,46.6c-4.787-5.396-8.801-9.924-8.924-10.063
	c-0.548-0.625,7.006-10.012,7.647-9.504c0.104,0.082,1.497,1.168,3.096,2.416c1.601,1.248,3.667,2.863,4.595,3.592
	c0.926,0.729,3.608,2.832,5.965,4.671c2.357,1.839,5.545,4.335,7.082,5.542c3.222,2.531,3.129,2.479,3.354,1.921
	c0.723-1.798,6.904-15.272,7.26-15.828C61.269,27.194,62.729,26.397,65.802,26.339L65.802,26.339z"/>
<path fill="#FFFFFF" d="M108.849,38.89c0.139-0.055,2.454,4.74,3.12,6.467c1.771,4.599,2.959,9.871,3.323,14.748
	c0.092,1.234,0.145,3.029,0.119,3.985l-0.049,1.735l-5.506-4.934c-3.03-2.713-6.769-6.046-8.299-7.404
	c-1.531-1.357-2.783-2.498-2.785-2.541C98.765,50.848,108.711,38.944,108.849,38.89L108.849,38.89z"/>
<path fill="#FFFFFF" d="M19.121,38.956c0.106-0.065,10.026,11.684,10.094,11.956c0.015,0.061-1.226,1.219-2.756,2.577
	c-1.531,1.357-5.207,4.646-8.173,7.303c-2.967,2.656-5.463,4.869-5.549,4.921c-0.205,0.127-0.207-3.238,0-5.829
	c0.418-5.229,1.849-11.105,3.854-15.828C17.315,42.351,18.948,39.062,19.121,38.956L19.121,38.956z"/>
<path fill="#FFFFFF" d="M97.839,51.991l5.549,4.953c12.805,11.414,11.895,10.564,11.896,11.072
	c0.011,3.361-1.781,10.937-3.658,15.445c-0.324,0.781-0.686,1.595-0.799,1.809c-0.188,0.346-14.969-15.464-20.977-22.433
	l-0.566-0.656l3.914-4.659c2.15-2.563,4.076-4.856,4.275-5.095L97.839,51.991L97.839,51.991z"/>
<path fill="#FFFFFF" d="M30.155,52.063c0.08-0.022,6.785,7.896,8.24,9.729l0.334,0.423l-2,2.208
	c-1.101,1.215-2.602,2.863-3.334,3.663s-4.594,5.037-8.574,9.414c-3.979,4.378-7.283,8.018-7.344,8.084
	c-0.24,0.27-1.959-4.132-2.91-7.446c-0.973-3.385-1.967-9.03-1.809-10.261c0.036-0.28,1.295-1.489,4.719-4.546
	c2.567-2.292,6.445-5.759,8.621-7.702S30.101,52.079,30.155,52.063L30.155,52.063z"/>
<path fill="#FFFFFF" d="M88.33,63.333c0.144-0.006,1.034,0.965,11.187,12.104c5.176,5.682,9.666,10.61,9.976,10.948L110.06,87
	l-1.052,1.879c-1.809,3.248-4.17,6.583-6.538,9.233c-0.652,0.73-1.24,1.338-1.302,1.344c-0.06,0.005-1.337-1.521-2.839-3.395
	c-1.503-1.873-4.757-5.918-7.225-8.992c-2.469-3.072-5.963-7.428-7.77-9.676c-2.182-2.721-3.24-4.158-3.161-4.289
	c0.066-0.108,1.188-1.468,2.493-3.025c1.307-1.559,3.093-3.696,3.975-4.749c0.881-1.054,1.635-1.945,1.67-1.987
	C88.317,63.338,88.321,63.334,88.33,63.333L88.33,63.333z"/>
<path fill="#FFFFFF" d="M39.647,63.351c0.097,0.008,7.69,9.031,8.113,9.641c0.221,0.318,0.488-0.028-17.845,22.791
	c-1.584,1.97-2.947,3.604-3.03,3.633c-0.604,0.195-5.689-6.615-7.904-10.584l-1.026-1.838l0.501-0.536
	c0.277-0.295,3.389-3.705,6.914-7.577C36.584,66.563,39.544,63.342,39.647,63.351L39.647,63.351z"/>
<path fill="#FFFFFF" d="M73.952,76.69c0.178-0.066,20.092,28.875,19.984,29.049c-0.17,0.275-3.492,2.404-5.256,3.371
	c-6.115,3.35-13.183,5.49-20.236,6.119c-9.75,0.873-20.297-1.31-28.834-5.965c-2.196-1.197-5.6-3.375-5.602-3.58
	c-0.002-0.144,2.096-3.201,17.797-25.927c1.18-1.708,2.197-3.084,2.26-3.062c0.063,0.024,2.289,2.488,4.946,5.478
	c2.658,2.988,4.911,5.429,5,5.429s2.337-2.439,4.994-5.429S73.888,76.715,73.952,76.69L73.952,76.69z"/>
</svg>
