<?xml version="1.0" encoding="utf-8"?>
<svg xmlns="http://www.w3.org/2000/svg" width="128px" height="128px">
<path fill="#FFFFFF" d="M91.883,114H36.111v-2.646l2.757-1.283V27.638h-1.062v-4.831h1.716v-1.081h1.916v-2.33h0.903v-0.648h1.268
	v-4.045h17.84v-1.757h0.427V7.301h-0.475L63.586,6h0.827l2.19,1.301h-0.495v5.644h0.427v1.757h17.834v4.045h1.282v0.648h0.908v2.33
	h1.917v1.081h1.695v4.831h-1.061v82.433l2.771,1.282L91.883,114L91.883,114z M51.24,40.959H48.35v6.389h2.891V40.959z
	 M57.147,39.677h2.889v-6.395h-2.889V39.677z M60.038,40.959h-2.889v6.389h2.889V40.959z M55.628,40.959h-2.883v6.389h2.883V40.959z
	 M55.628,33.282h-2.883v6.395h2.883V33.282z M51.24,39.677v-6.395H48.35v6.395H51.24z M59.562,52.675H48.35v13.459h11.212V52.675z
	 M79.631,33.282H76.76v6.395h2.871V33.282z M72.351,33.282v6.395h2.896v-6.395H72.351z M67.969,33.282v6.395h2.883v-6.395H67.969z
	 M67.969,40.959v6.389h2.883v-6.389H67.969z M72.351,40.959v6.389h2.896v-6.389H72.351z M76.76,47.348h2.871v-6.389H76.76V47.348z"
	/>
</svg>
