<?xml version="1.0" encoding="utf-8"?>
<!-- Generator: Adobe Illustrator 16.0.0, SVG Export Plug-In . SVG Version: 6.00 Build 0)  -->
<!DOCTYPE svg PUBLIC "-//W3C//DTD SVG 1.1//EN" "http://www.w3.org/Graphics/SVG/1.1/DTD/svg11.dtd">
<svg version="1.1" id="Layer_2" xmlns="http://www.w3.org/2000/svg" xmlns:xlink="http://www.w3.org/1999/xlink" x="0px" y="0px"
	 width="128px" height="128px" viewBox="0 0 128 128" enable-background="new 0 0 128 128" xml:space="preserve">
<path fill-rule="evenodd" clip-rule="evenodd" fill="#FFFFFF" d="M88.789,109H39.211v-2.354l2.452-1.142V32.236h-0.944v-4.298h1.522
	V26.98h1.705v-2.072h0.803v-0.578h1.127v-3.594h15.854v-1.564h0.38v-5.017h-0.422L63.633,13h0.733l1.945,1.155h-0.437v5.017h0.38
	v1.564h15.854v3.594h1.141v0.578h0.803v2.072h1.706v0.958h1.508v4.298h-0.944v73.269l2.466,1.142V109z M52.658,44.074H50.09v5.68
	h2.568V44.074z M57.909,42.933h2.567v-5.68h-2.567V42.933z M60.477,44.074h-2.567v5.68h2.567V44.074z M56.56,44.074h-2.567v5.68
	h2.567V44.074z M56.56,37.253h-2.567v5.68h2.567V37.253z M52.658,42.933v-5.68H50.09v5.68H52.658z M60.054,54.489H50.09v11.965
	h9.964V54.489z M77.896,37.253h-2.554v5.68h2.554V37.253z M71.425,37.253v5.68h2.568v-5.68H71.425z M67.523,37.253v5.68h2.567v-5.68
	H67.523z M67.523,44.074v5.68h2.567v-5.68H67.523z M71.425,44.074v5.68h2.568v-5.68H71.425z M75.342,49.754h2.554v-5.68h-2.554
	V49.754z"/>
</svg>
