<?xml version="1.0" encoding="utf-8"?>
<svg xmlns="http://www.w3.org/2000/svg" width="128px" height="128px">
<path fill="#FFFFFF" d="M128,42.68l-3.737,5.591c-1.05,1.606-2.656,2.409-4.525,2.409H91.213c-2.132,0-3.738,1.065-4.819,2.935
	l-11.737,21.05L64,54.401L53.328,74.664l-11.722-21.05c-1.066-1.869-2.935-2.935-4.803-2.935H8.263
	c-1.869,0-3.459-0.803-4.525-2.409L0,42.68h41.869c2.131,0,4,1.065,4.803,2.935l6.656,13.065L64,37.336L74.656,58.68l6.425-13.065
	c0.788-1.869,2.919-2.935,4.788-2.935H128z M82.131,72.008l-7.475,13.344L64,64.008L53.328,85.352l-7.459-13.344
	c-1.065-1.606-2.934-2.656-4.803-2.656H16l3.737,5.575c1.066,1.606,2.656,2.425,4.525,2.425h12.541c1.869,0,3.737,1.05,4.803,2.656
	l11.722,18.656L64,81.089l10.656,17.575l11.737-18.656c1.081-1.606,2.688-2.656,4.819-2.656h12.524c1.869,0,3.476-0.818,4.525-2.425
	L112,69.352H86.919C85.081,69.352,83.213,70.401,82.131,72.008z M90.394,58.401l-3.475,5.606h24.818
	c1.869,0,3.476-0.803,4.525-2.394L120,56.008H95.213C93.344,56.008,91.475,56.811,90.394,58.401z M41.065,64.008l-3.737-5.606
	c-1.065-1.59-2.656-2.394-4.525-2.394H8l3.737,5.606c1.066,1.59,2.656,2.394,4.525,2.394H41.065z"/>
</svg>
