<?xml version="1.0" encoding="utf-8"?>
<svg xmlns="http://www.w3.org/2000/svg" width="128px" height="128px">
<path fill="#FFFFFF" d="M64,10c-29.824,0-54,24.176-54,54s24.176,54,54,54s54-24.176,54-54S93.824,10,64,10z M64,104
	c-22.091,0-40-17.907-40-40s17.909-40,40-40s40,17.907,40,40S86.091,104,64,104z"/>
<rect x="20.008" y="56.992" transform="matrix(-0.7071 -0.7071 0.7071 -0.7071 64.0184 154.5007)" fill="#FFFFFF" width="87.999" height="14"/>
<rect x="19.992" y="56.993" transform="matrix(-0.7071 0.7071 -0.7071 -0.7071 154.4903 63.9934)" fill="#FFFFFF" width="87.999" height="14"/>
</svg>
